<svg xmlns="http://www.w3.org/2000/svg" viewBox="0 0 57 53" width="57" height="53" style="enable-background:new 0 0 57 53">
	<path fill="#1e120d" d="M548.1 496.2c12.2 11.2 13 30.3 1.7 42.5-11.2 12.2-30.3 13-42.5 1.7-12.2-11.2-13-30.3-1.7-42.5 11.3-12.1 30.3-12.9 42.5-1.7zm-2.1 1.1c-11.6-10.1-29.2-8.9-39.3 2.7-10.1 11.6-8.9 29.2 2.7 39.3s29.2 8.9 39.3-2.7c10.2-11.6 8.9-29.2-2.7-39.3z"/>
	<path fill="#1e120d" d="M544.8 499.2c-2.5 2.2-5 4.4-7.6 6.6-1.3 1.2-2.6 2.3-3.9 3.5-1.4 1.2-2.2 2-4.1 2.5-1.6.4-3.3.1-4.8-.7-1-.6-3.1-2.5-3.9-3.3-2.5-2.2-5-4.4-7.6-6.6-.7-.6-1.4-1.2-2.1-1.9l-.1-.1h.1l.2-.2.4-.4c.3-.2.6-.5.9-.7 1.3-1 2.7-1.8 4.2-2.5 3.1-1.5 6.2-2.3 9.7-2.5 6.8-.6 13.5 1.7 18.6 6.3zM546.9 501.3c4.5 5.1 6.8 11.7 6.4 18.5-.2 3.5-1 6.6-2.5 9.7-.7 1.5-1.6 2.9-2.5 4.2-.2.3-.5.6-.7.9-.1.2-.2.3-.4.4l-.2.2s0 .2-.1.1l-.1-.1c-.6-.7-1.2-1.4-1.9-2.1-2.2-2.5-4.4-5-6.6-7.6-.7-.8-2.7-2.9-3.3-3.9-.8-1.5-1.1-3.2-.7-4.8.4-1.9 1.3-2.7 2.5-4.1 1.2-1.3 2.3-2.6 3.5-3.9l6.6-7.5zM510.7 537.5c2.5-2.2 5-4.4 7.6-6.6 1.3-1.2 2.6-2.3 3.9-3.5 1.4-1.2 2.2-2 4.1-2.5 1.6-.4 3.3-.1 4.8.7 1 .6 3.1 2.5 3.9 3.3 2.5 2.2 5 4.4 7.6 6.6.7.6 1.4 1.2 2.1 1.9l.1.1h-.1l-.2.2-.4.4c-.3.2-.6.5-.9.7-1.3 1-2.7 1.8-4.2 2.5-3.1 1.5-6.2 2.3-9.7 2.5-6.8.6-13.5-1.8-18.6-6.3zM508.6 501.3c2.2 2.5 4.4 5 6.6 7.6 1.2 1.3 2.3 2.6 3.5 3.9 1.2 1.4 2 2.2 2.5 4.1.4 1.6.1 3.3-.7 4.8-.6 1-2.5 3.1-3.3 3.9-2.2 2.5-4.4 5-6.6 7.6-.6.7-1.2 1.4-1.9 2.1l-.1.1v-.1l-.2-.2-.4-.4c-.2-.3-.5-.6-.7-.9-1-1.3-1.8-2.7-2.5-4.2-1.5-3.1-2.3-6.2-2.5-9.7-.6-6.8 1.8-13.5 6.3-18.6z"/>
	<path fill="#1e120d" d="M532.5 572.5h1.2v2.5h-1.2zM556.7 588.4h-4.6c-1 0-1.9-.4-2.7-1.1-.7-.8-1.1-1.7-1.1-2.7V580c0-1 .4-1.9 1.1-2.7.8-.8 1.6-1.1 2.7-1.1h4.6c1 0 1.9.4 2.7 1.1.7.7 1.1 1.6 1.1 2.7v4.6c0 1-.4 1.9-1.1 2.7-.8.7-1.7 1.1-2.7 1.1zm0-11H551.5c-.1 0-.2 0-.2.1-.1 0-.2 0-.2.1-.1 0-.1.1-.2.1s-.1.1-.2.1-.1.1-.2.2l-.2.2-.2.2-.2.2c0 .1-.1.1-.1.2s-.1.1-.1.2-.1.1-.1.2 0 .2-.1.2V585.2c0 .1 0 .2.1.2 0 .1 0 .2.1.2 0 .1.1.1.1.2s.1.1.1.2.1.1.2.2l.2.2.2.2.2.2c.1 0 .1.1.2.1s.1.1.2.1.1.1.2.1.2 0 .2.1H557.3c.1 0 .2 0 .2-.1.1 0 .2 0 .2-.1.1 0 .1-.1.2-.1s.1-.1.2-.1.1-.1.2-.2l.2-.2.2-.2.2-.2c0-.1.1-.1.1-.2s.1-.1.1-.2.1-.1.1-.2 0-.2.1-.2v-.3-.3-4.6-.3-.3c0-.1 0-.2-.1-.2 0-.1 0-.1-.1-.2 0-.1-.1-.1-.1-.2s-.1-.1-.1-.2-.1-.1-.2-.2l-.2-.2-.2-.2-.2-.2c-.1 0-.1-.1-.2-.1s-.1-.1-.2-.1-.1-.1-.2-.1-.2 0-.2-.1h-.6zM546 577.3c.7.7 1.1 1.6 1.1 2.7v8.4h-1.2V580v-.3-.2c0-.1 0-.2-.1-.2 0-.1 0-.1-.1-.2v-.1s0-.1-.1-.1c0 0 0-.1-.1-.1 0 0 0-.1-.1-.1 0-.1-.1-.1-.2-.2l-.1-.1-.1-.1-.1-.1-.1-.1-.2-.2c-.1 0-.1-.1-.2-.1s-.1-.1-.2-.1-.1-.1-.2-.1-.2 0-.2-.1h-7.7v11h-1.2v-12.2h8.4c1-.1 1.9.2 2.7 1zM505.7 588.4v-15.8h1.2v3.6h7.2c1 0 1.9.4 2.7 1.1.7.7 1.1 1.6 1.1 2.7v8.4h-1.2V580v-.3-.2c0-.1 0-.2-.1-.2 0-.1 0-.1-.1-.2v-.1s0-.1-.1-.1c0 0 0-.1-.1-.1 0 0 0-.1-.1-.1 0-.1-.1-.1-.2-.2l-.1-.1-.1-.1-.1-.1-.1-.1-.2-.2c-.1 0-.1-.1-.2-.1s-.1-.1-.2-.1-.1-.1-.2-.1-.2 0-.2-.1h-7.7v11c-.4-.1-.8-.1-1.2-.1zM530.1 577.4h-6.7c-.5 0-.9 0-1.4.2-.5.2-.9.6-1.2 1-.3.5-.4.9-.4 1.5v4.4c0 .4.1.8.3 1.1.4.8 1.1 1.3 2 1.4h4.1V588.3h-4.4c-1.1-.2-2-.8-2.6-1.7-.3-.4-.5-.9-.6-1.4-.1-.4-.1-.8-.1-1.2v-3.8-.4c0-.9.4-1.7 1-2.3.6-.7 1.3-1.1 2.2-1.2.4-.1.7 0 1.1 0h7.8v12.2h-1.1-.1-.1v-.2-.3-.7c.2-3.4.2-6.6.2-9.9zM500.7 577.4h.6c.1 0 .2 0 .2.1.1 0 .2 0 .2.1.1 0 .1.1.2.1s.1.1.2.1.1.1.2.2l.2.2.2.2.2.2c0 .1.1.1.1.2s.1.1.1.2.1.1.1.2 0 .2.1.2V585.2c0 .1 0 .2-.1.2 0 .1 0 .2-.1.2 0 .1-.1.1-.1.2s-.1.1-.1.2-.1.1-.2.2l-.2.2-.2.2-.2.2c-.1 0-.1.1-.2.1s-.1.1-.2.1-.1.1-.2.1-.2 0-.2.1H496.9v1.2h3.8c1 0 1.9-.4 2.7-1.1.7-.8 1.1-1.7 1.1-2.7V580c0-1-.4-1.9-1.1-2.7-.8-.8-1.6-1.1-2.7-1.1h-8.4V592h1.2v-14.6h7.2zM532.5 576.2h1.2v12.2h-1.2zM561.8 575.9c-.7 0-1.3-.6-1.3-1.3 0-.7.6-1.3 1.3-1.3.7 0 1.3.6 1.3 1.3.1.7-.5 1.3-1.3 1.3zm0-2.5c-.7 0-1.2.5-1.2 1.2s.5 1.2 1.2 1.2 1.2-.5 1.2-1.2-.5-1.2-1.2-1.2z"/>
	<path fill="#1e120d" d="M561.4 574.7v.7h-.2v-1.6h.6c.2 0 .3 0 .4.1.1.1.1.2.1.3 0 .1 0 .2-.1.2 0 .1-.1.1-.2.2 0 0 .1 0 .1.1 0 0 0 .1.1.1v.6h-.2v-.1-.1-.2-.1-.1l-.1-.1h-.1-.4zm.4-.2h.2s.1 0 .1-.1l.1-.1v-.1-.1l-.1-.1h-.1-.6v.6h.4z"/>
	<path fill="#1e120d" d="M13.5 47.2H12c-.1 0-.5.1-.4-.1.6-.5 1.2-.7 1.9-.7 1.4 0 2.7 1 3 2.5.6 3.3-3.7 5-5.5 2.2-.4-.7-.6-1.3-.5-2.1 0-.3.1-.7.3-1 0-.1 0-.2.1-.2h.9l-.1.1c-.1.1-.1.1-.1.2-.1.2-.2.3-.2.5-.1.4-.2.7-.1 1.1.1.7.5 1.3 1.1 1.6 1.3.7 3 0 3.3-1.4.4-1.3-.7-2.7-2.2-2.7zM20.2 44.5v8h.8v-2.8c0-.5 0-.9.1-1.1 0-.2.1-.4.2-.6.2-.3.4-.5.6-.6.3-.1.6-.2.9-.2.6 0 1.1.2 1.3.5.3.3.4 1 .4 1.8v3h.8v-3c0-1.1-.2-1.9-.6-2.4-.4-.5-1-.7-1.9-.7-.4 0-.7.1-1.1.2-.3.1-.6.3-.8.6v-2.8h-.7zM43.5 52.1v-.5-.3-.1c0-.1-.1 0-.1.1-.3.2-.6.4-.9.5-.7.2-1.4 0-2-.5-1.2-1-1.1-2.7.1-3.6 1.2-.9 2.9-.4 3.5 1 .3.7.2 1.4.2 2.1v.7l.2-.2c.2-.3.4-.6.4-.9.9-3.2-3.3-5.3-5.3-2.7-2.1 2.6 1 6.1 3.9 4.4zM18.1 52.5v-3.6c0-.6.1-1 .3-1.2.2-.2.6-.4 1-.4v-.8c-.3 0-.6.1-.8.2-.2.1-.4.3-.6.6v-.8h-.7v6.1h.8zM26.5 46.5h.8v6.1h-.8z"/>
	<circle fill="#1e120d" cx="26.9" cy="45.1" r=".6"/>
	<path fill="#1e120d" d="M29.3 52.5v-3.1l2.6 3.1h1l-2.7-3.2 2.2-2.8h-.9l-2.2 2.8v-4.8h-.8v8zM33.1 46.5v3c0 1.1.2 1.9.6 2.3.4.5 1 .7 1.9.7.4 0 .8-.1 1.1-.2.3-.1.6-.3.8-.6v.8h.8v-6.1h-.8v2.8c0 .5 0 .9-.1 1.1 0 .2-.1.4-.2.6-.2.3-.4.5-.6.6-.3.1-.6.2-.9.2-.6 0-1.1-.2-1.3-.5-.3-.3-.4-.9-.4-1.8v-3.1h-.9zM45.7 46.9c-.5 0-.8-.4-.8-.8 0-.5.4-.8.8-.8.5 0 .8.4.8.8s-.4.8-.8.8zm0-1.6c-.4 0-.7.3-.7.7 0 .4.3.7.7.7.4 0 .7-.3.7-.7 0-.3-.3-.7-.7-.7z"/>
	<path fill="#1e120d" d="M45.4 46.1v.5h-.1v-1h.4c.1 0 .2 0 .3.1.1 0 .1.1.1.2v.1l-.1.1h.1v.5H46v-.1-.1-.1-.1-.1h-.1-.5zm.3-.1h.2l.1-.1v-.1-.1l-.1-.1h-.1-.4v.4h.3z"/>
	<path fill="#1e120d" d="M13.1 15.4C13.1 6.9 20 0 28.5 0s15.4 6.9 15.4 15.4S37 30.8 28.5 30.8c-8.5-.1-15.4-7-15.4-15.4zm8.8-4.5c2.9 0 5 2.8 4.3 5.6-.7 2.8-4 4.2-6.5 2.7-1.2-.7-2-1.9-2.2-3.2-.1-.7-.1-1.4.2-2.1.1-.3.3-.6.4-.9.1-.1.2-.3.3-.4 0-.1.1-.1.2-.2s-.1-.1-.1-.1H17c-.2 0-.2.2-.3.3-.3.6-.5 1.2-.6 1.9-.2 1.5.1 2.7.9 4 3.5 5.4 12 2.1 10.7-4.3-.5-2.8-2.9-4.8-5.8-4.8-1.5 0-2.6.4-3.8 1.3-.4.3.5.1.7.1h1c.7.1 1.4.1 2.1.1zm17.6 4.5v3c0 .2-.2 1 .1.7.9-1.1 1.3-2.3 1.3-3.8 0-2.8-2-5.2-4.8-5.8-6.4-1.2-9.7 7.2-4.3 10.7 1.3.8 2.5 1.1 4 .9.7-.1 1.3-.3 1.9-.6.1-.1.3-.1.3-.3v-.5-1c0-.1 0-.2-.1-.1l-.2.2c-.1.1-.3.2-.4.3-.3.2-.6.3-.9.4-.7.2-1.4.3-2.1.2-1.3-.2-2.5-1-3.2-2.2-1.4-2.5-.1-5.7 2.7-6.5 3-.7 5.7 1.4 5.7 4.4z"/>
	<path fill="#1c1c1a" d="M-96.9-57.2c7.6 0 13.8 6.2 13.8 13.8 0 7.6-6.2 13.8-13.8 13.8-7.6 0-13.8-6.2-13.8-13.8-.1-7.6 6.2-13.8 13.8-13.8m-3.3 19.7h-.2c-.1-.1-.2-.1-.3-.2-.1-.1-.2-.3-.2-.4-.1-.2-.1-.4-.1-.6.3-.2.5-.5.7-.8.2-.4.3-.8.3-1.3 0-.6-.1-1.1-.4-1.5-.4-.6-1.1-1-1.8-1-.9 0-1.7.6-2.1 1.5-.2.5-.3 1.2-.3 1.9 0 .8.1 1.5.2 2.1.2.7.4 1.3.8 1.8.4.6.8 1 1.3 1.4.6.4 1.3.6 2 .6s1.5-.2 2.2-.5c.7-.4 1.4-1 1.9-1.8.5-.7.9-1.7 1.2-2.9.3-1.1.5-2.5.5-4.1 0-.6.1-1.2.1-1.9 0-.5.1-1 .1-1.5H-93.1c.8 0 1.5-.3 2-.9.5-.5.7-1.2.7-2.1 0-1-.3-1.8-.8-2.5-.6-.8-1.5-1.2-2.4-1.2-1 0-1.8.4-2.5 1.1-.6.6-1 1.3-1.4 2.3-.3.8-.5 1.9-.7 3-.2 1.1-.2 2.4-.2 3.8 0 .7-.1 1.5-.2 2.3-.1.8-.3 1.5-.5 2.1-.2.5-.4.9-.7 1.2-.2.1-.2.1-.4.1m3.3-20.8c-8.2 0-14.9 6.7-14.9 14.9s6.7 14.9 14.9 14.9S-82-35.2-82-43.4s-6.7-14.9-14.9-14.9zm-3.3 21.9c.4 0 .8-.2 1.1-.5.4-.4.7-.9.9-1.6.2-.7.4-1.4.5-2.3.1-.8.2-1.7.2-2.5 0-1.3.1-2.6.2-3.6.2-1.1.4-2 .7-2.8.3-.8.7-1.4 1.1-1.9.5-.5 1.1-.8 1.8-.8.6 0 1.2.3 1.6.8.4.5.6 1.1.6 1.8 0 .6-.1 1.1-.4 1.4-.3.4-.7.5-1.1.5h-.8l.3-.7c.1-.2.2-.4.2-.6 0-.2.1-.5.1-.8 0-.5-.1-.8-.2-.9-.1-.2-.2-.2-.2-.2-.2 0-.4.1-.5.2-.2.2-.4.4-.5.8-.2.4-.3.8-.4 1.3-.1.5-.2 1.1-.2 1.7-.1.6-.1 1.2-.1 1.8 0 .6-.1 1.3-.1 1.9-.1 1.6-.2 2.9-.5 3.9-.3 1.1-.6 1.9-1 2.5-.4.7-.9 1.2-1.5 1.4-.5.3-1.1.4-1.7.4-.5 0-1-.1-1.4-.4-.4-.3-.7-.6-1-1.1-.3-.4-.5-.9-.6-1.5-.1-.6-.2-1.2-.2-1.8 0-.6.1-1.1.3-1.5.3-.7.8-.8 1.1-.8.4 0 .7.2.9.5.2.2.2.6.2.9 0 .3-.1.6-.2.8-.2.3-.4.5-.7.5v.7c0 .3 0 .7.1 1 .1.3.2.5.4.8.2.2.4.4.6.5-.1.2.2.2.4.2zM-95.7-9.5v-2.2h-.5v-1.1h.5V-14h1.3v1.2h1.1v1.1h-1.1v2c0 .3.1.4.4.4.2 0 .5-.1.6-.2v1c-.3.2-.6.3-1 .3-.8.1-1.3-.3-1.3-1.3zM-93-14.5h1.3v2.3c.3-.4.7-.7 1.3-.7 1 0 1.6.7 1.6 1.7v3h-1.3v-2.6c0-.6-.3-.9-.8-.9s-.8.3-.8.9v2.6H-93v-6.3zM-88.3-14.5h1.4v1.2h-1.4v-1.2zm.1 1.7h1.3v4.6h-1.3v-4.6zM-86.3-12.8h1.3v.7c.3-.4.7-.7 1.3-.7 1 0 1.6.7 1.6 1.7v3h-1.3v-2.6c0-.6-.3-.9-.8-.9s-.8.3-.8.9v2.6h-1.3v-4.7zM-81.6-7.3l.4-1c.5.3.9.4 1.6.4.9 0 1.3-.4 1.3-1.3v-.2c-.4.5-.8.7-1.5.7-1.1 0-2-.8-2-2.1 0-1.4 1-2.1 2-2.1.7 0 1.1.3 1.5.7v-.6h1.3v3.6c0 .8-.2 1.4-.6 1.8-.4.4-1.1.6-2 .6-.7 0-1.4-.2-2-.5zm3.3-3.4c0-.6-.5-1.1-1.1-1.1-.6 0-1.1.4-1.1 1.1 0 .6.5 1.1 1.1 1.1.6-.1 1.1-.5 1.1-1.1z"/>
	<path fill="#1c1c1a" d="M-116.8-8.8l.3-.5c.5.4 1 .6 1.5.6s.9-.3.9-.7c0-.4-.5-.6-1.1-.8-.7-.2-1.5-.4-1.5-1.3 0-.8.6-1.3 1.5-1.3.5 0 1.1.2 1.6.5l-.3.5c-.4-.3-.9-.4-1.3-.4-.5 0-.9.3-.9.6 0 .4.5.6 1.1.8.7.2 1.4.5 1.4 1.3s-.7 1.3-1.6 1.3c-.4.1-1.1-.2-1.6-.6zM-113.1-10.4c0-1.3 1-2.3 2.3-2.3 1.3 0 2.3 1 2.3 2.3 0 1.3-1 2.3-2.3 2.3-1.3 0-2.3-1.1-2.3-2.3zm3.9 0c0-1-.7-1.8-1.6-1.8-1 0-1.6.8-1.6 1.7 0 1 .7 1.7 1.6 1.7 1 .1 1.6-.7 1.6-1.6zM-107.9-12.7h.7v.7c.3-.4.7-.8 1.4-.8s1.2.4 1.4.9c.3-.5.8-.9 1.6-.9 1 0 1.6.7 1.6 1.8v2.7h-.7v-2.6c0-.9-.4-1.3-1.2-1.3-.7 0-1.2.5-1.2 1.4v2.6h-.7v-2.6c0-.8-.4-1.3-1.1-1.3-.7 0-1.2.6-1.2 1.4v2.5h-.7v-4.5zM-100.7-10.4c0-1.3.9-2.3 2.1-2.3 1.3 0 2.1 1 2.1 2.3v.2h-3.5c.1 1 .8 1.5 1.6 1.5.6 0 1-.2 1.4-.6l.4.4c-.4.5-1 .8-1.8.8-1.3 0-2.3-.9-2.3-2.3zm3.6-.3c-.1-.8-.5-1.5-1.4-1.5-.8 0-1.4.6-1.4 1.5h2.8z"/>
</svg>