<?xml version="1.0" encoding="utf-8"?>
<!-- Generator: Adobe Illustrator 18.0.0, SVG Export Plug-In . SVG Version: 6.00 Build 0)  -->
<!DOCTYPE svg PUBLIC "-//W3C//DTD SVG 1.1//EN" "http://www.w3.org/Graphics/SVG/1.1/DTD/svg11.dtd">
<svg version="1.1" id="Capa_1" xmlns="http://www.w3.org/2000/svg" xmlns:xlink="http://www.w3.org/1999/xlink" x="0px" y="0px"
	 width="50px" height="44.2px" viewBox="0 0 50 44.2" enable-background="new 0 0 50 44.2" xml:space="preserve">
<path d="M11.1,29.9H10V0h6.9v14.4h4.7V0h18.4v29.9h-6.9V1.1h-4.7v28.9l-6.9,0V15.5h-4.7v14.4h-1.1V15.5h-4.7V29.9z M34.2,28.9h4.7
	V1.1h-4.7V28.9z M22.6,28.9h4.7V15.5h-4.7V28.9z M22.6,14.4h4.7V1.1h-4.7V14.4z M11.1,14.4h4.7V1.1h-4.7V14.4z"/>
<g>
	<path d="M0,40.8c0.5,0,1,0,1.5,0c0.3,0,0.5,0,0.8,0c0.2,0,0.4,0,0.6-0.1c0.2-0.1,0.3-0.3,0.4-0.5c0-0.1,0-0.3,0-0.4
		c0-0.2,0-0.3,0-0.5c0-0.2,0-0.5-0.1-0.7c-0.1-0.2-0.3-0.3-0.5-0.3c-0.5,0-1,0-1.4,0c-0.2,0-0.5,0-0.7,0c-0.1,0-0.1,0-0.2,0
		c-0.1,0-0.1,0-0.2-0.1C0,38.2,0,38,0.2,38c0.1,0,0.1,0,0.2,0c0.1,0,0.1,0,0.2,0c0.1,0,0.2,0,0.4,0c0.2,0,0.5,0,0.7,0s0.5,0,0.7,0
		c0.3,0,0.4,0,0.7,0.1c0.2,0.1,0.4,0.3,0.5,0.5c0.1,0.2,0.1,0.5,0.1,0.7c0,0.2,0,0.5,0,0.7c0,0.3-0.1,0.5-0.2,0.7
		C3.2,40.9,3,41,2.7,41.1c-0.1,0-0.6,0-0.7,0c-0.5,0-1,0-1.4,0c0,0-0.1,0-0.1,0c0,0,0,0-0.1,0c0,0,0,0,0,0c0,0,0,0,0,0
		c0,0.1,0,0.1,0,0.2c0,0.4,0,0.8,0,1.2c0,0.2,0,0.4,0,0.6c0,0.1,0,0.2,0,0.3c0,0,0,0.1,0,0.1c0,0.1-0.1,0.1-0.2,0.1
		c-0.1,0-0.1-0.1-0.1-0.1c0-0.1,0-0.3,0-0.4c0-0.2,0-0.3,0-0.5C0,42,0,41.4,0,40.8z"/>
	<path d="M6.1,41c0,0.6,0,1.2,0,1.8c0,0.1,0,0.3,0,0.4c0,0.1,0,0.1,0,0.2c0,0.1,0,0.1-0.1,0.2c-0.1,0-0.1,0-0.2,0
		c-0.1-0.1,0-0.1,0-0.2c0-0.1,0-0.3,0-0.4c0-1.2,0-2.4,0-3.5c0-0.3,0-0.6,0-0.9c0-0.1,0-0.1,0-0.2c0-0.1,0-0.1,0-0.2
		C5.9,38,6,38,6.1,38c0.1,0,0.1,0.1,0.1,0.2c0,0.6,0,1.2,0,1.8c0,0.1,0,0.3,0,0.4c0,0,0,0.1,0,0.1c0,0,0,0,0,0.1c0,0,0,0,0,0
		c0.1,0,0.1,0,0.2,0c0.3,0,0.6,0,0.9,0c0.3,0,0.6,0,0.9,0c0.1,0,0.3,0,0.4,0c0.1,0,0.1,0,0.2,0c0,0,0.1,0,0.1,0c0,0,0,0,0.1,0
		c0,0,0,0,0,0c0,0,0,0,0,0c0,0,0,0,0,0c0-0.6,0-1.2,0-1.8c0-0.1,0-0.3,0-0.4c0-0.1,0-0.1,0-0.2c0-0.1,0-0.1,0.1-0.2
		c0.1,0,0.1,0,0.2,0c0.1,0.1,0,0.1,0,0.2c0,0.1,0,0.3,0,0.4c0,1.2,0,2.4,0,3.5c0,0.3,0,0.6,0,0.9c0,0.1,0,0.1,0,0.2
		c0,0.1,0,0.1,0,0.2c-0.1,0.1-0.1,0.1-0.2,0C9,43.5,9,43.5,9,43.4c0-0.6,0-1.2,0-1.8c0-0.1,0-0.3,0-0.4c0,0,0-0.1,0-0.1
		c0,0,0,0,0-0.1c0,0,0,0,0,0c-0.1,0-0.1,0-0.2,0c-0.3,0-0.6,0-0.9,0C7.3,41,6.7,41,6.1,41z"/>
	<path d="M15,38.3c-0.6,0-1.2,0-1.9,0c-0.3,0-0.6,0-0.9,0c-0.1,0-0.2,0-0.2,0c0,0-0.2,0-0.2,0c-0.2-0.1-0.1-0.3,0.1-0.3
		c0.6,0,1.2,0,1.9,0c0.3,0,0.6,0,0.9,0c0.1,0,0.2,0,0.2,0c0,0,0.2,0,0.2,0C15.2,38.1,15.2,38.3,15,38.3z"/>
	<path d="M11.6,43.6c0-0.7,0-1.3,0-2c0-0.2,0-0.3,0-0.5c0-0.1,0-0.2,0-0.2c0,0,0-0.1,0-0.1c0,0,0,0,0-0.1c0,0,0,0,0,0c0,0,0,0,0,0
		c0.3,0,0.7,0,1,0c0.2,0,0.3,0,0.5,0c0.1,0,0.2,0,0.2,0c0.1,0,0.2,0.1,0.2,0.2c0,0.1-0.1,0.2-0.1,0.2c0,0-0.2,0-0.2,0
		c-0.2,0-0.3,0-0.5,0s-0.3,0-0.5,0c0,0-0.1,0-0.1,0c0,0,0,0-0.1,0c0,0,0,0,0,0c0,0,0,0,0,0c0,0.1,0,0.2,0,0.2c0,0.3,0,0.7,0,1
		c0,0.3,0,0.7,0,1c0,0,0,0,0,0c0,0,0,0,0,0c0,0,0,0,0.1,0c0,0,0.1,0,0.1,0c0.1,0,0.2,0,0.2,0c0.2,0,0.3,0,0.5,0c0.7,0,1.3,0,2,0
		c0.1,0,0.2,0,0.2,0.1c0,0.1,0,0.2,0,0.2c-0.1,0-0.2,0-0.2,0c-0.1,0-0.2,0-0.2,0c-0.3,0-0.7,0-1,0C12.9,43.6,12.3,43.6,11.6,43.6z"
		/>
	<path d="M17.7,43.4c0,0.2-0.3,0.2-0.3,0c0-0.2,0-0.4,0-0.5c0-0.4,0-0.7,0-1.1c0-0.7,0-1.4,0-2.1c0-0.4,0-0.7,0-1.1
		c0-0.2,0-0.4,0-0.5c0,0,0,0,0-0.1c0,0,0,0,0,0c0,0,0,0,0,0c0,0,0,0,0,0c0,0,0.1,0,0.1,0c0,0,0.1,0,0.1,0c0,0,0,0,0.1,0
		c0,0,0,0,0.1,0c0.3,0.6,0.7,1.3,1,1.9c0.3,0.6,0.7,1.3,1,1.9c0.2,0.3,0.3,0.6,0.5,0.9c0,0.1,0.1,0.2,0.1,0.2c0,0,0,0.1,0.1,0.1
		c0,0,0,0,0,0c0,0,0,0,0,0c0,0,0,0,0-0.1c0-0.2,0-0.4,0-0.5c0-1.4,0-2.9,0-4.3c0-0.2,0.3-0.2,0.3,0c0,0.2,0,0.4,0,0.5
		c0,0.4,0,0.7,0,1.1c0,0.7,0,1.4,0,2.1c0,0.4,0,0.7,0,1.1c0,0.2,0,0.4,0,0.5c0,0,0,0,0,0.1c0,0,0,0,0,0c0,0,0,0,0,0c0,0,0,0,0,0
		c0,0-0.1,0-0.1,0c0,0-0.1,0-0.1,0c0,0,0,0-0.1,0c0,0,0,0-0.1,0c-0.3-0.6-0.7-1.3-1-1.9c-0.3-0.6-0.7-1.3-1-1.9
		c-0.2-0.3-0.3-0.6-0.5-0.9c0-0.1-0.1-0.2-0.1-0.2c0,0,0-0.1-0.1-0.1c0,0,0,0,0,0c0,0,0,0,0,0c0,0,0,0,0,0.1c0,0.2,0,0.4,0,0.5
		C17.7,40.6,17.7,42,17.7,43.4z"/>
	<path d="M25.9,38.6c0.2,0.5,0.5,1,0.7,1.4c0.1,0.3,0.2,0.5,0.2,0.8c0,0.3-0.1,0.6-0.2,0.9c-0.2,0.4-0.4,0.9-0.7,1.3
		c-0.2,0.3-0.5,0.6-0.9,0.6c-0.4,0-0.7-0.3-0.9-0.6c-0.2-0.4-0.4-0.9-0.7-1.3c-0.1-0.3-0.2-0.5-0.2-0.9c0-0.3,0.1-0.5,0.2-0.8
		c0.2-0.5,0.5-1,0.7-1.4c0.2-0.3,0.5-0.6,0.9-0.6C25.4,38,25.7,38.2,25.9,38.6z M25.6,38.7c0,0-0.1-0.1-0.1-0.1c0,0-0.1-0.1-0.1-0.1
		c0,0-0.1-0.1-0.1-0.1c0,0-0.1,0-0.1,0c0,0-0.1,0-0.1,0c0,0-0.1,0-0.1,0c0,0-0.1,0-0.1,0c-0.1,0-0.1,0.1-0.1,0.1
		c0,0-0.1,0.1-0.1,0.1c0,0-0.1,0.1-0.1,0.1c-0.2,0.5-0.5,1-0.7,1.4c0,0.1-0.1,0.1-0.1,0.2c0,0,0,0.1,0,0.1c0,0,0,0.1,0,0.2
		c0,0.1,0,0.1,0,0.2c0,0.1,0,0.1,0,0.2c0,0.1,0,0.1,0,0.2c0,0.1,0,0.1,0.1,0.2c0,0.1,0.1,0.1,0.1,0.2c0.2,0.4,0.4,0.9,0.7,1.3
		c0,0,0.1,0.1,0.1,0.1c0,0,0.1,0.1,0.1,0.1c0,0,0.1,0.1,0.1,0.1c0,0,0.1,0,0.1,0c0,0,0.1,0,0.1,0c0,0,0.1,0,0.1,0c0,0,0.1,0,0.1,0
		c0.1,0,0.1-0.1,0.1-0.1c0,0,0.1-0.1,0.1-0.1c0,0,0.1-0.1,0.1-0.1c0.2-0.4,0.4-0.9,0.7-1.3c0-0.1,0.1-0.1,0.1-0.2
		c0-0.1,0-0.1,0.1-0.2c0-0.1,0-0.1,0-0.2c0-0.1,0-0.1,0-0.2c0-0.1,0-0.1,0-0.2c0-0.1,0-0.1,0-0.2c0-0.1,0-0.1,0-0.1
		c0-0.1,0-0.1-0.1-0.2C26,39.7,25.8,39.2,25.6,38.7z"/>
	<path d="M36.6,40.4c0.5-0.6,1-1.2,1.4-1.9c0,0,0,0,0-0.1c0,0,0,0,0-0.1c0,0,0-0.1,0-0.1c0,0,0-0.2,0-0.2c0.1-0.2,0.3-0.1,0.3,0.1
		c0,0.2,0,0.3,0,0.5c0,0,0,0,0,0c0,0,0,0,0,0c0,0,0,0.1-0.1,0.1c0,0.1-0.1,0.1-0.1,0.2c-0.1,0.1-0.2,0.3-0.3,0.4
		c-0.3,0.4-0.6,0.8-0.9,1.2c0,0-0.1,0.1-0.1,0.1c0,0,0,0,0,0.1c0,0,0,0,0,0c0,0.1,0,0.1,0,0.2c0,0.1,0,0.2,0,0.4c0,0.4,0,0.8,0,1.2
		c0,0.2,0,0.4,0,0.6c0,0.1,0,0.2,0,0.3c0,0.1-0.1,0.2-0.2,0.2c-0.1,0-0.2-0.1-0.2-0.2c0-0.1,0-0.2,0-0.3c0-0.2,0-0.4,0-0.6
		c0-0.4,0-0.8,0-1.2c0-0.1,0-0.2,0-0.4c0-0.1,0-0.1,0-0.2c0,0,0,0,0,0c0,0,0-0.1,0-0.1c0,0-0.1-0.1-0.1-0.1
		c-0.3-0.4-0.6-0.8-0.9-1.2c-0.1-0.1-0.2-0.3-0.3-0.4c0-0.1-0.1-0.1-0.1-0.2c0,0,0-0.1-0.1-0.1c0,0,0,0,0,0c0,0,0,0,0,0
		c0-0.2,0-0.3,0-0.5c0-0.2,0.3-0.2,0.3-0.1c0,0,0,0.2,0,0.2c0,0,0,0.1,0,0.1c0,0,0,0,0,0.1c0,0,0,0,0,0.1
		C35.6,39.2,36.1,39.8,36.6,40.4z"/>
	<path d="M30.6,38.3c-0.3,0-0.5,0-0.8,0c-0.1,0-0.3,0-0.4,0c0,0-0.1,0-0.1,0c0,0,0,0,0,0c0,0,0,0,0,0c0,0,0,0.1,0,0.1
		c0,0.1,0,0.1,0,0.2c0,0,0,0,0,0.1c0,0.1-0.1,0.1-0.1,0.1c-0.1,0-0.1,0-0.2-0.1c0-0.1,0-0.1,0-0.2c0-0.1,0-0.2,0-0.3
		c0-0.1,0-0.3,0-0.4c0,0,0,0,0,0c0,0,0,0,0,0c0,0,0.1,0,0.1,0c0.1,0,0.1,0,0.2,0c0.1,0,0.2,0,0.4,0c0.5,0,0.9,0,1.4,0
		c0.2,0,0.5,0,0.7,0c0.1,0,0.2,0,0.4,0c0.1,0,0.1,0,0.2,0c0,0,0.1,0,0.1,0c0,0,0,0,0,0c0,0,0,0,0,0c0,0.1,0,0.3,0,0.4
		c0,0.1,0,0.2,0,0.3c0,0.1-0.1,0.2-0.2,0.2c-0.1,0-0.1-0.1-0.1-0.2c0-0.1,0-0.1,0-0.2c0,0,0-0.1,0-0.1c0,0,0,0,0-0.1c0,0,0,0,0,0
		c0,0,0,0,0,0c0,0,0,0,0,0c-0.1,0-0.2,0-0.4,0c-0.2,0-0.5,0-0.7,0c0,0,0,0,0,0c0,0,0,0,0,0c0,0,0,0,0,0c0,0,0,0.1,0,0.1
		c0,0.1,0,0.1,0,0.2c0,0.1,0,0.2,0,0.4c0,0.8,0,1.7,0,2.5c0,0.4,0,0.8,0,1.3c0,0.2,0,0.4,0,0.6c0,0.1-0.1,0.2-0.2,0.2
		c-0.1,0-0.2-0.1-0.2-0.2C30.6,41.7,30.6,40,30.6,38.3z"/>
	<path d="M40.6,40.8c0.5,0,1,0,1.5,0c0.3,0,0.5,0,0.8,0c0.2,0,0.4,0,0.6-0.1c0.2-0.1,0.3-0.3,0.4-0.5c0-0.1,0-0.3,0-0.4
		c0-0.2,0-0.3,0-0.5c0-0.2,0-0.5-0.1-0.7c-0.1-0.2-0.3-0.3-0.5-0.3c-0.5,0-1,0-1.4,0c-0.2,0-0.5,0-0.7,0c-0.1,0-0.1,0-0.2,0
		c-0.1,0-0.1,0-0.2-0.1c-0.1-0.1,0-0.3,0.1-0.3c0.1,0,0.1,0,0.2,0c0.1,0,0.1,0,0.2,0c0.1,0,0.2,0,0.4,0c0.2,0,0.5,0,0.7,0
		c0.2,0,0.5,0,0.7,0c0.3,0,0.4,0,0.7,0.1c0.2,0.1,0.4,0.3,0.5,0.5c0.1,0.2,0.1,0.5,0.1,0.7c0,0.2,0,0.5,0,0.7c0,0.3-0.1,0.5-0.2,0.7
		c-0.2,0.2-0.4,0.3-0.6,0.4c-0.1,0-0.6,0-0.7,0c-0.5,0-1,0-1.4,0c0,0-0.1,0-0.1,0c0,0,0,0-0.1,0c0,0,0,0,0,0c0,0,0,0,0,0
		c0,0.1,0,0.1,0,0.2c0,0.4,0,0.8,0,1.2c0,0.2,0,0.4,0,0.6c0,0.1,0,0.2,0,0.3c0,0,0,0.1,0,0.1c0,0.1-0.1,0.1-0.2,0.1
		c-0.1,0-0.1-0.1-0.1-0.1c0-0.1,0-0.3,0-0.4c0-0.2,0-0.3,0-0.5C40.6,42,40.6,41.4,40.6,40.8z"/>
	<path d="M46.4,43.6c0-0.7,0-1.3,0-2c0-0.2,0-0.3,0-0.5c0-0.1,0-0.2,0-0.2c0,0,0-0.1,0-0.1c0,0,0,0,0-0.1c0,0,0,0,0,0c0,0,0,0,0,0
		c0.3,0,0.7,0,1,0c0.2,0,0.3,0,0.5,0c0.1,0,0.2,0,0.2,0c0.1,0,0.2,0.1,0.2,0.2c0,0.1-0.1,0.2-0.1,0.2c0,0-0.2,0-0.2,0
		c-0.2,0-0.3,0-0.5,0c-0.2,0-0.3,0-0.5,0c0,0-0.1,0-0.1,0c0,0,0,0-0.1,0c0,0,0,0,0,0c0,0,0,0,0,0c0,0.1,0,0.2,0,0.2c0,0.3,0,0.7,0,1
		c0,0.3,0,0.7,0,1c0,0,0,0,0,0c0,0,0,0,0,0c0,0,0,0,0.1,0c0,0,0.1,0,0.1,0c0.1,0,0.2,0,0.2,0c0.2,0,0.3,0,0.5,0c0.7,0,1.3,0,2,0
		c0.1,0,0.2,0,0.2,0.1c0,0.1,0,0.2,0,0.2c-0.1,0-0.2,0-0.2,0c-0.1,0-0.2,0-0.2,0c-0.3,0-0.7,0-1,0C47.7,43.6,47.1,43.6,46.4,43.6z"
		/>
	<path d="M49.8,38.3c-0.6,0-1.2,0-1.9,0c-0.3,0-0.6,0-0.9,0c-0.1,0-0.2,0-0.2,0c0,0-0.2,0-0.2,0c-0.2-0.1-0.1-0.3,0.1-0.3
		c0.6,0,1.2,0,1.9,0c0.3,0,0.6,0,0.9,0c0.1,0,0.2,0,0.2,0c0,0,0.2,0,0.2,0C50,38.1,50,38.3,49.8,38.3z"/>
</g>
</svg>
